<mxfile host="Electron" modified="2024-07-01T09:05:49.334Z" agent="Mozilla/5.0 (X11; Linux x86_64) AppleWebKit/537.36 (KHTML, like Gecko) draw.io/22.1.21 Chrome/120.0.6099.109 Electron/28.1.0 Safari/537.36" etag="ud5bGlhIg-7kqRCfCqnx" version="22.1.21" type="device">
  <diagram name="Seite-1" id="NDIvkReZSE3IgxiRX1MB">
    <mxGraphModel dx="1434" dy="838" grid="1" gridSize="10" guides="1" tooltips="1" connect="1" arrows="1" fold="1" page="1" pageScale="1" pageWidth="1654" pageHeight="1169" math="0" shadow="0">
      <root>
        <mxCell id="0" />
        <mxCell id="1" parent="0" />
        <mxCell id="zqrnoCPPn4zBWXg4jpjh-14" value="" style="rounded=0;whiteSpace=wrap;html=1;" vertex="1" parent="1">
          <mxGeometry x="497.5" y="380" width="395" height="260" as="geometry" />
        </mxCell>
        <mxCell id="zqrnoCPPn4zBWXg4jpjh-1" value="" style="sketch=0;pointerEvents=1;shadow=0;dashed=0;html=1;strokeColor=none;fillColor=#505050;labelPosition=center;verticalLabelPosition=bottom;verticalAlign=top;outlineConnect=0;align=center;shape=mxgraph.office.devices.nic;" vertex="1" parent="1">
          <mxGeometry x="630" y="400" width="130" height="100" as="geometry" />
        </mxCell>
        <mxCell id="zqrnoCPPn4zBWXg4jpjh-2" value="" style="html=1;verticalLabelPosition=bottom;verticalAlign=top;outlineConnect=0;shadow=0;dashed=0;shape=mxgraph.rack.hpe_aruba.switches.rj45_sfp;" vertex="1" parent="1">
          <mxGeometry x="545" y="610" width="60" height="50" as="geometry" />
        </mxCell>
        <mxCell id="zqrnoCPPn4zBWXg4jpjh-4" value="" style="html=1;verticalLabelPosition=bottom;verticalAlign=top;outlineConnect=0;shadow=0;dashed=0;shape=mxgraph.rack.hpe_aruba.switches.rj45_sfp;" vertex="1" parent="1">
          <mxGeometry x="625" y="610" width="60" height="50" as="geometry" />
        </mxCell>
        <mxCell id="zqrnoCPPn4zBWXg4jpjh-5" value="" style="html=1;verticalLabelPosition=bottom;verticalAlign=top;outlineConnect=0;shadow=0;dashed=0;shape=mxgraph.rack.hpe_aruba.switches.rj45_sfp;" vertex="1" parent="1">
          <mxGeometry x="705" y="610" width="60" height="50" as="geometry" />
        </mxCell>
        <mxCell id="zqrnoCPPn4zBWXg4jpjh-6" value="" style="html=1;verticalLabelPosition=bottom;verticalAlign=top;outlineConnect=0;shadow=0;dashed=0;shape=mxgraph.rack.hpe_aruba.switches.rj45_sfp;" vertex="1" parent="1">
          <mxGeometry x="785" y="610" width="60" height="50" as="geometry" />
        </mxCell>
        <mxCell id="zqrnoCPPn4zBWXg4jpjh-8" style="edgeStyle=orthogonalEdgeStyle;rounded=0;orthogonalLoop=1;jettySize=auto;html=1;endArrow=none;endFill=0;strokeWidth=5;fillColor=#ffe6cc;strokeColor=#d79b00;" edge="1" parent="1" source="zqrnoCPPn4zBWXg4jpjh-24" target="zqrnoCPPn4zBWXg4jpjh-4">
          <mxGeometry relative="1" as="geometry">
            <mxPoint x="500" y="380" as="sourcePoint" />
            <Array as="points">
              <mxPoint x="655" y="568" />
            </Array>
          </mxGeometry>
        </mxCell>
        <mxCell id="zqrnoCPPn4zBWXg4jpjh-7" value="" style="image;html=1;image=img/lib/clip_art/computers/Laptop_128x128.png" vertex="1" parent="1">
          <mxGeometry x="220" y="360" width="150" height="140" as="geometry" />
        </mxCell>
        <mxCell id="zqrnoCPPn4zBWXg4jpjh-9" style="edgeStyle=orthogonalEdgeStyle;rounded=0;orthogonalLoop=1;jettySize=auto;html=1;endArrow=none;endFill=0;strokeWidth=5;" edge="1" parent="1" source="zqrnoCPPn4zBWXg4jpjh-7" target="zqrnoCPPn4zBWXg4jpjh-14">
          <mxGeometry relative="1" as="geometry">
            <mxPoint x="520" y="180" as="sourcePoint" />
            <mxPoint x="705" y="410" as="targetPoint" />
            <Array as="points">
              <mxPoint x="410" y="450" />
              <mxPoint x="410" y="450" />
            </Array>
          </mxGeometry>
        </mxCell>
        <mxCell id="zqrnoCPPn4zBWXg4jpjh-11" style="edgeStyle=orthogonalEdgeStyle;rounded=0;orthogonalLoop=1;jettySize=auto;html=1;endArrow=none;endFill=0;strokeWidth=5;fillColor=#ffe6cc;strokeColor=#d79b00;" edge="1" parent="1" source="zqrnoCPPn4zBWXg4jpjh-26" target="zqrnoCPPn4zBWXg4jpjh-6">
          <mxGeometry relative="1" as="geometry">
            <mxPoint x="730" y="600" as="sourcePoint" />
            <mxPoint x="815" y="600" as="targetPoint" />
            <Array as="points">
              <mxPoint x="815" y="568" />
            </Array>
          </mxGeometry>
        </mxCell>
        <mxCell id="zqrnoCPPn4zBWXg4jpjh-13" style="edgeStyle=orthogonalEdgeStyle;rounded=0;orthogonalLoop=1;jettySize=auto;html=1;" edge="1" parent="1" source="zqrnoCPPn4zBWXg4jpjh-6" target="zqrnoCPPn4zBWXg4jpjh-6">
          <mxGeometry relative="1" as="geometry" />
        </mxCell>
        <mxCell id="zqrnoCPPn4zBWXg4jpjh-15" value="&lt;h1 class=&quot;a-size-large a-spacing-none&quot;&gt;&lt;font style=&quot;font-size: 8px;&quot;&gt;Delock 62966 Adapter USB 3.0 auf 4 x Gigabit LAN&amp;nbsp;&lt;/font&gt;&lt;/h1&gt;" style="text;html=1;strokeColor=none;fillColor=none;align=center;verticalAlign=middle;whiteSpace=wrap;rounded=0;" vertex="1" parent="1">
          <mxGeometry x="510" y="350" width="220" height="30" as="geometry" />
        </mxCell>
        <mxCell id="zqrnoCPPn4zBWXg4jpjh-16" value="Server" style="image;html=1;image=img/lib/clip_art/computers/Server_128x128.png" vertex="1" parent="1">
          <mxGeometry x="150" y="690" width="160" height="140" as="geometry" />
        </mxCell>
        <mxCell id="zqrnoCPPn4zBWXg4jpjh-19" style="edgeStyle=orthogonalEdgeStyle;rounded=0;orthogonalLoop=1;jettySize=auto;html=1;endArrow=none;endFill=0;strokeWidth=5;fillColor=#e1d5e7;strokeColor=#9673a6;" edge="1" parent="1" source="zqrnoCPPn4zBWXg4jpjh-16" target="zqrnoCPPn4zBWXg4jpjh-2">
          <mxGeometry relative="1" as="geometry">
            <mxPoint x="580" y="620" as="sourcePoint" />
            <mxPoint x="665" y="620" as="targetPoint" />
            <Array as="points">
              <mxPoint x="570" y="760" />
            </Array>
          </mxGeometry>
        </mxCell>
        <mxCell id="zqrnoCPPn4zBWXg4jpjh-21" style="edgeStyle=orthogonalEdgeStyle;rounded=0;orthogonalLoop=1;jettySize=auto;html=1;endArrow=none;endFill=0;strokeWidth=5;fillColor=#e1d5e7;strokeColor=#9673a6;" edge="1" parent="1" source="zqrnoCPPn4zBWXg4jpjh-5" target="zqrnoCPPn4zBWXg4jpjh-4">
          <mxGeometry relative="1" as="geometry">
            <mxPoint x="320" y="770" as="sourcePoint" />
            <mxPoint x="580" y="670" as="targetPoint" />
            <Array as="points">
              <mxPoint x="735" y="710" />
              <mxPoint x="660" y="710" />
            </Array>
          </mxGeometry>
        </mxCell>
        <mxCell id="zqrnoCPPn4zBWXg4jpjh-22" value="Client" style="image;html=1;image=img/lib/clip_art/computers/Laptop_128x128.png" vertex="1" parent="1">
          <mxGeometry x="1000" y="700" width="130" height="120" as="geometry" />
        </mxCell>
        <mxCell id="zqrnoCPPn4zBWXg4jpjh-23" style="edgeStyle=orthogonalEdgeStyle;rounded=0;orthogonalLoop=1;jettySize=auto;html=1;endArrow=none;endFill=0;strokeWidth=5;fillColor=#e1d5e7;strokeColor=#9673a6;" edge="1" parent="1" source="zqrnoCPPn4zBWXg4jpjh-22" target="zqrnoCPPn4zBWXg4jpjh-6">
          <mxGeometry relative="1" as="geometry">
            <mxPoint x="320" y="770" as="sourcePoint" />
            <mxPoint x="580" y="670" as="targetPoint" />
            <Array as="points">
              <mxPoint x="820" y="770" />
            </Array>
          </mxGeometry>
        </mxCell>
        <mxCell id="zqrnoCPPn4zBWXg4jpjh-25" value="" style="edgeStyle=orthogonalEdgeStyle;rounded=0;orthogonalLoop=1;jettySize=auto;html=1;endArrow=none;endFill=0;strokeWidth=5;fillColor=#ffe6cc;strokeColor=#d79b00;" edge="1" parent="1" source="zqrnoCPPn4zBWXg4jpjh-2" target="zqrnoCPPn4zBWXg4jpjh-24">
          <mxGeometry relative="1" as="geometry">
            <mxPoint x="570" y="610" as="sourcePoint" />
            <mxPoint x="655" y="610" as="targetPoint" />
            <Array as="points">
              <mxPoint x="575" y="568" />
            </Array>
          </mxGeometry>
        </mxCell>
        <mxCell id="zqrnoCPPn4zBWXg4jpjh-24" value="&lt;font style=&quot;font-size: 10px;&quot;&gt;br-delay&lt;/font&gt;" style="outlineConnect=0;dashed=0;verticalLabelPosition=bottom;verticalAlign=top;align=center;html=1;shape=mxgraph.aws3.queue;fillColor=#D9A741;gradientColor=none;" vertex="1" parent="1">
          <mxGeometry x="590" y="550" width="48" height="35" as="geometry" />
        </mxCell>
        <mxCell id="zqrnoCPPn4zBWXg4jpjh-27" value="" style="edgeStyle=orthogonalEdgeStyle;rounded=0;orthogonalLoop=1;jettySize=auto;html=1;endArrow=none;endFill=0;strokeWidth=5;fillColor=#ffe6cc;strokeColor=#d79b00;" edge="1" parent="1" source="zqrnoCPPn4zBWXg4jpjh-5" target="zqrnoCPPn4zBWXg4jpjh-26">
          <mxGeometry relative="1" as="geometry">
            <mxPoint x="730" y="610" as="sourcePoint" />
            <mxPoint x="815" y="610" as="targetPoint" />
            <Array as="points">
              <mxPoint x="735" y="568" />
            </Array>
          </mxGeometry>
        </mxCell>
        <mxCell id="zqrnoCPPn4zBWXg4jpjh-26" value="&lt;font style=&quot;font-size: 10px;&quot;&gt;br-loss&lt;/font&gt;" style="outlineConnect=0;dashed=0;verticalLabelPosition=bottom;verticalAlign=top;align=center;html=1;shape=mxgraph.aws3.queue;fillColor=#D9A741;gradientColor=none;" vertex="1" parent="1">
          <mxGeometry x="750" y="550" width="48" height="35" as="geometry" />
        </mxCell>
      </root>
    </mxGraphModel>
  </diagram>
</mxfile>
